/* XPM */
static char *Free_Converter_com_ansible_62594403[] = {
/* columns rows colors chars-per-pixel */
"16 16 53 1 ",
"  c #000200020002",
". c #029A029A029A",
"X c #083608360836",
"o c #0D410D410D41",
"O c #123B123B123B",
"+ c #12CA12CA12CA",
"@ c #179D179D179D",
"# c #1D881D881D88",
"$ c #21E521E521E5",
"% c #241D241D241D",
"& c #2B592B592B59",
"* c #2C512C512C51",
"= c #322332233223",
"- c #36B936B936B9",
"; c #3AB73AB73AB7",
": c #3E203E203E20",
"> c #444C444C444C",
", c #498C498C498C",
"< c #4E724E724E72",
"1 c #518751875187",
"2 c #5B045B045B04",
"3 c #5E665E665E66",
"4 c #64BF64BF64BF",
"5 c #6CD76CD76CD7",
"6 c #716E716E716E",
"7 c #776177617761",
"8 c #7E357E357E35",
"9 c #824682468246",
"0 c #873387338733",
"q c #8ABC8ABC8ABC",
"w c #8D9E8D9E8D9E",
"e c #97B597B597B5",
"r c #995699569956",
"t c #9F239F239F23",
"y c #A8B6A8B6A8B6",
"u c #A993A993A993",
"i c #AC3EAC3EAC3E",
"p c #BAC4BAC4BAC4",
"a c #C12BC12BC12B",
"s c #C55DC55DC55D",
"d c #C7EEC7EEC7EE",
"f c #CD1FCD1FCD1F",
"g c #D294D294D294",
"h c #D668D668D668",
"j c #D9EFD9EFD9EF",
"k c #DEFEDEFEDEFE",
"l c #E61FE61FE61F",
"z c #EB8EEB8EEB8E",
"x c #EF38EF38EF38",
"c c #F1BBF1BBF1BB",
"v c #F95BF95BF95B",
"b c #FCBBFCBBFCBB",
"n c gray100",
/* pixels */
"nnnnnnxllcnnnnnn",
"nnnng8>%*,0jnnnn",
"nnvr%      *unnn",
"nnro   #*   Ounn",
"nf$    waO   *jn",
"n7    %df1    qn",
"z;    6r5tX   <c",
"k#   Oa9$p-   =l",
"k#   1jd8e9   =l",
"x:   yw=igf#  1c",
"n7  -h: @ex3  qn",
"nf$ =4X  o2- *jn",
"nnro        @unn",
"nnvt$      &unnn",
"nnnng8>&*<0jnnnn",
"nnnnnnxllcnnnnnn"
};
