/* XPM */
static char *Free_Converter_com_antlr_21834434[] = {
/* columns rows colors chars-per-pixel */
"16 16 60 1 ",
"  c #E48047AE2F3C",
". c #E48B47E92F80",
"X c #E4AB48CD3082",
"o c #E5094B4E3353",
"O c #E5954EDF3762",
"+ c #E61052863B7C",
"@ c #E63553403C57",
"# c #E6BE56513FAB",
"$ c #E6BA56884030",
"% c #E6EA58754246",
"& c #E7665BC04602",
"* c #E7FD5FEB4AB9",
"= c #E83E60C54BAB",
"- c #E8AB631B4E56",
"; c #E8C864544F8A",
": c #E8D564AD502F",
"> c #E9006605518C",
", c #E94A6845542C",
"< c #E98369215507",
"1 c #EA036D7359E2",
"2 c #EBA37860664F",
"3 c #EC2C7AD76940",
"4 c #EC327CDB6B78",
"5 c #EC927D636C0D",
"6 c #EE1089B37A28",
"7 c #EEC18D517E2B",
"8 c #F0C69D54908D",
"9 c #F21FA31F9698",
"0 c #F284A60E9A3A",
"q c #F2DCA7E69C38",
"w c #F305A8699CE3",
"e c #F319AB66A053",
"r c #F33CAD15A238",
"t c #F397AF5FA4AD",
"y c #F4DCBB74B211",
"u c #F547BBF3B315",
"i c #F5D8BBDCB2CA",
"p c #F5BBBD2CB461",
"a c #F63BBE88B5E2",
"s c #F756C9ADC2A7",
"d c #F7BBCC3BC575",
"f c #F93BD5C8D05D",
"g c #F93DD66DD138",
"h c #F95DD8B4D3C6",
"j c #FA25DDD3D982",
"k c #FB35DEFEDAAF",
"l c #FB52E0B9DC95",
"z c #FB16E29EDEB5",
"x c #FB1CE40BE051",
"c c #FC0EEAC1E804",
"v c #FC38EBA0E901",
"b c #FD07EC2EE98E",
"n c #FD37ED64EAE5",
"m c #FCA2EE9EEC79",
"M c #FE0CF340F187",
"N c #FE42F440F2B7",
"B c #FE64F52EF3B7",
"V c #FE39F966F8AC",
"C c #FF74FC4BFBC5",
"Z c #FFFFFFFDFFFC",
/* pixels */
"ZZZZZZNnnNZZZZZZ",
"ZZZZk03::30xZZZZ",
"ZZCi:. O+ .>pCZZ",
"ZZi#. #ip%..$pZZ",
"Zk>XXX6CC6XX.<xZ",
"Z0XXX$sggd$X..wZ",
"N3.XX5m67n5...3B",
"b>XXOph%&ku@X.>b",
"n>..1c8#@wc1 .:m",
"N3X qx>5ykZ0..2N",
"Z0X-xto@4sCx* 9Z",
"Zk;&e1XX.@6e%-kZ",
"ZZi$XXO.OX.X$uZZ",
"ZZCu>X ..XX;pZZZ",
"ZZZZx05<<50xZZZZ",
"ZZZZZZBnnBZZZZZZ"
};
