/* XPM */
static char *Free_Converter_com_applescript_9014435[] = {
/* columns rows colors chars-per-pixel */
"16 16 33 1 ",
"  c #A70BC19FAA1A",
". c #A8A3C2BEABA7",
"X c #A98EC35EAC88",
"o c #AB8DC4CBAE6A",
"O c #ACC3C5B4AFAD",
"+ c #AEFBC733B1C8",
"@ c #B06CC82CB328",
"# c #B1DFC953B49B",
"$ c #B47BCB05B6FE",
"% c #B5EDCC21B865",
"& c #BAD7CF94BD2A",
"* c #BE57D1F4C0B6",
"= c #C632D776C848",
"- c #C7FFD8B1C9FC",
"; c #CBBADB3CCD70",
": c #CE89DD43D003",
"> c #CF57DDE7D109",
", c #D05FDE8FD239",
"< c #D418E108D59A",
"1 c #D5E3E285D740",
"2 c #D817E3FDD975",
"3 c #D8E1E47CDA25",
"4 c #DD27E7ACDE4B",
"5 c #E1A8EABFE29C",
"6 c #E4EAED16E5F8",
"7 c #E918F00CE9E1",
"8 c #EB20F13CEBBB",
"9 c #ED87F307EE15",
"0 c #F399F74FF3F3",
"q c #F7AAFA1EF7E3",
"w c #FB1AFC8AFB3E",
"e c #FC4FFD68FC6F",
"r c #FFFCFFFDFFFC",
/* pixels */
"rrrrrrrrrrwrrrrr",
"rrrrrrrrq::errrr",
"rrrrrrrr>.<rrrrr",
"rrrrrrrq&=qrrrrr",
"rrre5>274<:19rrr",
"rre>o .+@X  &0rr",
"rr6O ... X.X>err",
"rr> ...... $0rrr",
"rr- .X.....&wrrr",
"rr; . X... #9rrr",
"rr3X.. X....=qrr",
"rr9@ .XX....X2rr",
"rre- X X.XX +8rr",
"rrr9$       >rrr",
"rrrr6*&:1=%:qrrr",
"rrrrreqrrrqrrrrr"
};
