/* XPM */
static char *Free_Converter_com_appveyor_58914435[] = {
/* columns rows colors chars-per-pixel */
"16 16 55 1 ",
"  c #0000B20DE034",
". c #0000B2E1E08A",
"X c #0329B482E129",
"o c #03F6B4B1E14D",
"O c #0983B610E1D3",
"+ c #0C39B708E234",
"@ c #0FB2B836E2D5",
"# c #1100B86DE2B5",
"$ c #1731BA6EE3B3",
"% c #17CEBAC4E3DD",
"& c #1927BAB4E3A6",
"* c #2395BE5FE53A",
"= c #23BEBE48E52C",
"- c #27CFBF8FE5B8",
"; c #2B17C0A0E60B",
": c #2E0EC169E668",
"> c #31D4C248E6D4",
", c #3571C3A5E75E",
"< c #3FCEC696E87E",
"1 c #443FC7F9E920",
"2 c #4569C817E94C",
"3 c #4AF5C9EFE9E3",
"4 c #537CCC76EAE5",
"5 c #5D8ECFAEEC25",
"6 c #6697D25CED53",
"7 c #6AF0D385EDF8",
"8 c #6C22D401EE00",
"9 c #729ED5BCEE8F",
"0 c #7404D645EF0F",
"q c #78B0D7B8EF77",
"w c #7BBED888EFF9",
"e c #7E85D977F035",
"r c #80ABDA02F08E",
"t c #85C0DB95F122",
"y c #8F08DE54F249",
"u c #9CEFE280F3E5",
"i c #A0CBE3A8F464",
"p c #A1A3E3E5F47F",
"a c #AC27E702F5C9",
"s c #AEE4E7BDF618",
"d c #C236ED92F89C",
"f c #C5FAEE9BF8E9",
"g c #CA28EFE0F97A",
"h c #CC7DF0B7F9E2",
"j c #D0E6F1F3FA40",
"k c #D7D5F409FB1A",
"l c #D86DF431FB3A",
"z c #D9F7F4B6FB5D",
"x c #E051F672FC28",
"c c #E1E5F6FBFC56",
"v c #E47DF7CFFCA8",
"b c #EA9AF9AEFD67",
"n c #ED61FA7DFDB8",
"m c #FA47FE4CFF44",
"M c gray100",
/* pixels */
"MMMMMMnvvnMMMMMM",
"MMMMje<;-2rkMMMM",
"MMmu*......=imMM",
"MMu#... ....#uMM",
"Mh=...;68,o..=kM",
"Mw..O6jffz9o..rM",
"n< $ybq$#8z,..2n",
"c=:snf$..#d8..=v",
"x3gatd# .&f6..-v",
"b7u*>l9&&th;..2n",
"Me#.X6zfhn7...rM",
"Mj*..o>0zi+..=kM",
"MMu# .+tf-..#iMM",
"MMmu=o0z4..=imMM",
"MMMMhr75:2wkMMMM",
"MMMMMMncvnMMMMMM"
};
