/* XPM */
static char *Free_Converter_com_babel_98424652[] = {
/* columns rows colors chars-per-pixel */
"16 16 33 1 ",
"  c #FD38D6E176FC",
". c #FD92D8F07D69",
"X c #FD9EDAED8474",
"o c #FDBADD058B7C",
"O c #FDF2DE4C8FC7",
"+ c #FDDADF1E9285",
"@ c #FDE0DF9E9481",
"# c #FE29E0AB9792",
"$ c #FE18E1F79BE4",
"% c #FE42E28C9DF4",
"& c #FE50E3EFA281",
"* c #FE65E5EEA90C",
"= c #FE78E713ACCA",
"- c #FE6EE93CB423",
"; c #FEBBEB14BA4E",
": c #FEBBEBF7BD0B",
"> c #FEB5ECA3BFB7",
", c #FEBCED62C241",
"< c #FEE2EF43C810",
"1 c #FEF7EFC8C9E6",
"2 c #FF14F099CCF9",
"3 c #FF18F1F8D13E",
"4 c #FF5CF4D6DAAC",
"5 c #FF6DF5ABDDAA",
"6 c #FF79F73EE2D8",
"7 c #FF7AF7C6E4C4",
"8 c #FF6FF8B3E7DE",
"9 c #FFA6F9B8EACD",
"0 c #FF9CFAA1EDB1",
"q c #FFB4FB9CF158",
"w c #FFE2FD79F78B",
"e c #FFE9FEA7FB5F",
"r c #FFFFFFFFFFFE",
/* pixels */
"rrrrrrrrrrrrrrrr",
"rrrrrrrrrrrrrrrr",
"rrrrrrrrrrrrrrrr",
"rrrrrrrrrrrrrrrr",
"rrrrrrrrrrrrrrrr",
"rr8,1qe0677>:5rr",
"rq@$#1:$+%+-,1rr",
"rw+oX- &+XO<;9rr",
"r5%=.$%%-o%2=,5r",
"r**:14;3q56q00wr",
"w29erqqrrrrrrrrr",
"rrrrrrrrrrrrrrrr",
"rrrrrrrrrrrrrrrr",
"rrrrrrrrrrrrrrrr",
"rrrrrrrrrrrrrrrr",
"rrrrrrrrrrrrrrrr"
};
