/* XPM */
static char *Free_Converter_com_cmake_52954652[] = {
/* columns rows colors chars-per-pixel */
"16 16 122 2 ",
"   c #15AE51EF755A",
".  c #226E753A655B",
"X  c #BD5D127D1067",
"o  c #B5A91B17196F",
"O  c #C57A1D721B3D",
"+  c #CE3725962591",
"@  c #C42F2C0A2C05",
"#  c #CAED2A4328C6",
"$  c #D64E2DB92DB9",
"%  c #CF6B35863556",
"&  c #DD4E357F357F",
"*  c #D3D73CE53CE9",
"=  c #E09B38893889",
"-  c #E65B3BDC3CFE",
";  c #8436736F32A3",
":  c #98C3350F5B32",
">  c #A314342C4FEA",
",  c #A7B73F0053FD",
"<  c #8AE2337C67DF",
"1  c #81A2370178F1",
"2  c #BEEC57D0567C",
"3  c #BD206944447B",
"4  c #D8453FD04268",
"5  c #CD4B5403411C",
"6  c #C4775F0D5F0D",
"7  c #E91840E0410F",
"8  c #E5284D384D36",
"9  c #EDBB4A1D49F7",
"0  c #F5F949BC4B91",
"q  c #E75660BE5989",
"w  c #CFE16A2B6A2B",
"e  c #DA5674BE74BE",
"r  c #E6B37F847FFF",
"t  c #26CA9BE61239",
"y  c #046BAF28023C",
"u  c #0000B9930000",
"i  c #0F66BC8E0EFD",
"p  c #36EAA2132E94",
"a  c #2FAFA7C23002",
"s  c #23D4A4F73DE7",
"d  c #30CFA6CD31FB",
"f  c #316EAD2B30BF",
"g  c #31EEB3A63109",
"h  c #31EEB9F8310B",
"j  c #6D6582892BDD",
"k  c #45D6A19E3C7B",
"l  c #0000C2060000",
"z  c #0144CB5100D3",
"x  c #0000D3E40000",
"c  c #002CDEC40000",
"v  c #07FDCE2C1273",
"b  c #0F9CC1232034",
"n  c #3189D1422FA3",
"m  c #31EEC04D310B",
"M  c #31EFC6B3310C",
"N  c #31E2CCD83103",
"B  c #369EC3EC3BE2",
"V  c #7FB18F5653BA",
"C  c #4DFBB09A4C3C",
"Z  c #78169C6E78DE",
"A  c #929582697EC6",
"S  c #148D14A7A66B",
"D  c #1D281C08A297",
"F  c #2CA02D62ACC4",
"G  c #2F903560A347",
"H  c #24CA251EB23E",
"J  c #2E822F46B81A",
"K  c #393B39A1B3BE",
"L  c #346B34F7BCD5",
"P  c #186D42BC847B",
"I  c #44004480BD96",
"U  c #5A995AF2B174",
"Y  c #5B6B5BCBB32D",
"T  c #7E7C7DF9A4BF",
"R  c #6A626A96BE24",
"E  c #3F573FE1C432",
"W  c #41404437C121",
"Q  c #421A4572CAA8",
"!  c #482248A0CAB1",
"~  c #4EDC50B2CF1F",
"^  c #5B2A5BBFCEF6",
"/  c #5C635ADED2F4",
"(  c #75656B88CE97",
")  c #7A107A3CC95A",
"_  c #67CD625FD4F9",
"`  c #91735AAA8842",
"'  c #B2B4716F81E6",
"]  c #ADB293E293F1",
"[  c #BA7297E79A19",
"{  c #8198B10E928E",
"}  c #BDC6A10D9205",
"|  c #846F86A3B6E4",
" . c #A89FA81DA99B",
".. c #DC10B39EB283",
"X. c #DBBDB4D4B4D4",
"o. c #E004B8CBB8CB",
"O. c #E3ECBC9BBC9B",
"+. c #9713896FC64E",
"@. c #89FB8A7BD5DF",
"#. c #B384B356D5BE",
"$. c #B70FB733D80C",
"%. c #B5C0BB70D1F1",
"&. c #BCEABD04DC77",
"*. c #D54FC492CA88",
"=. c #D117CBA4DBE6",
"-. c #E805C079C079",
";. c #EC9FC38FC3DC",
":. c #C38CC39AE13C",
">. c #C8F3C9A5E695",
",. c #E485F227E660",
"<. c #E681F1BEE726",
"1. c #E7F1F167E7D6",
"2. c #E766F576E6CF",
"3. c #E807F4AFE7EC",
"4. c #ED04F19CEC3F",
"5. c #EAE0F4ABEADA",
"6. c #F767F18FF0A7",
"7. c #F377F378F6D4",
"8. c #F489F488F7AC",
"9. c #F487F55AF93E",
"0. c #FC89FC74FC85",
"q. c gray100",
/* pixels */
"q.q.q.q.q.q.q.q.0.q.q.q.q.q.q.q.",
"q.q.q.q.q.q.q.=.*.q.q.q.q.q.q.q.",
"q.q.q.q.q.q.9.+.' 6.q.q.q.q.q.q.",
"q.q.q.q.q.q.>.( , ..q.q.q.q.q.q.",
"q.q.q.q.q.8.@._ > 2 6.q.q.q.q.q.",
"q.q.q.q.q.:.^ / : o X.q.q.q.q.q.",
"q.q.q.q.7.) ! ~ < X 6 6.q.q.q.q.",
"q.q.q.q.&.I E Q 1 O @ o.q.q.q.q.",
"q.q.q.8.R J L W ` # + w 6.q.q.q.",
"q.q.q.$.F H K | [ % $ * O.q.q.q.",
"q.q.8.Y S G T  .] * & = e 6.q.q.",
"q.q.#.D P s C Z A 4 - 7 8 -.q.q.",
"q.7.U   b x z i p ; 5 9 0 r 8.q.",
"q.%.. v c x z l u y t j 3 q ;.q.",
"8.{ B n n M h h g f d d k V } 8.",
"q.5.3.,.3.3.3.1.1.,.1.1.,.,.4.q."
};
