/* XPM */
static char *Free_Converter_com_codecov_67234652[] = {
/* columns rows colors chars-per-pixel */
"16 16 46 1 ",
"  c #E4CC3E4A7125",
". c #E70A4E997D6E",
"X c #E79051E97F80",
"o c #E79352938020",
"O c #E7D8550A8213",
"+ c #E86E58C484A5",
"@ c #E8A2596484FA",
"# c #E94F5E908908",
"$ c #E99E60DC8A88",
"% c #EA5665108DDF",
"& c #EB476C689331",
"* c #EB926E4E9494",
"= c #EC35732E9836",
"- c #ECB676229A37",
"; c #ECE9782B9BB7",
": c #ED2479EB9D0B",
"> c #EE2E8055A1EC",
", c #EE3380F8A280",
"< c #EECA8543A573",
"1 c #EF5789FCA8EF",
"2 c #EF688AA8A994",
"3 c #F16A97E2B340",
"4 c #F17C983FB37F",
"5 c #F1AB99FFB4A4",
"6 c #F43EABCDC1D0",
"7 c #F462AD73C30C",
"8 c #F4D5B161C60A",
"9 c #F5BAB662C9AF",
"0 c #F610B998CC17",
"q c #F681BC9FCE75",
"w c #F782C357D35A",
"e c #F81AC84FD6FC",
"r c #F981D15BDDC7",
"t c #FA11D61BE108",
"y c #FA80D9CAE3C9",
"u c #FB76E014E882",
"i c #FBDBE29EEA49",
"p c #FC22E4FFEC02",
"a c #FC60E67DED31",
"s c #FC73E6D0ED76",
"d c #FDAEEF68F3BA",
"f c #FE5CF403F723",
"g c #FE65F4A4F7A3",
"h c #FEC5F728F976",
"j c #FF19F9A1FB53",
"k c #FFFFFFFBFFFD",
/* pixels */
"kkkkkkfaafkkkkkk",
"kkkkp4%OX%3ikkkk",
"kkke+&7rr7&+ekkk",
"kktO3fkkkkf3orkk",
"kj;,jkkkkkkj,-jk",
"kyorhkkkkkjgrXyk",
"k9 *&,wjjq:&& 9k",
"k6O36<&i3.273O6k",
"kiakkkd0.ekkkaik",
"kkkkkkj:2kkkkkkk",
"kkkkkkf&6kkkkkkk",
"kkkkkkh=3kkkkkkk",
"kkkkkkk6+ukkkkkk",
"kkkkkkkf-#9akkkk",
"kkkkkkkkd5$8kkkk",
"kkkkkkkkkkdhkkkk"
};
