/* XPM */
static char *Free_Converter_com_config_51435729[] = {
/* columns rows colors chars-per-pixel */
"16 16 30 1 ",
"  c #96AEB6AFC314",
". c #9860B7DDC40E",
"X c #98D4B82FC452",
"o c #994CB883C498",
"O c #9CB5BAEFC699",
"+ c #A0CFBDB5C8F9",
"@ c #A5A9C11ECBC7",
"# c #A706C218CC9A",
"$ c #A992C3C9CDF2",
"% c #AA01C42FCE57",
"& c #B77BCD91D60A",
"* c #BAEBCFCBD7EB",
"= c #BB52D052D834",
"- c #BBDED086D8AC",
"; c #BD62D197D98A",
": c #C1A5D49DDBE9",
"> c #C29ED53FDC71",
", c #C415D63EDD62",
"< c #C585D749DE43",
"1 c #C7D1D8DFDF71",
"2 c #CD4EDCC9E2B8",
"3 c #E3C8EC5EEFD1",
"4 c #E437EC9DEFFD",
"5 c #E7D5EF29F211",
"6 c #EACCF13EF3C1",
"7 c #F6C7F994FA9D",
"8 c #F939FB4EFC1B",
"9 c #F9F9FBC2FC7F",
"0 c #FB8AFCE6FD70",
"q c #FFF6FFF9FFFA",
/* pixels */
"qqqqq88qq00qqqqq",
"qqqq3&:77>;5qqqq",
"qqqq> o&&o <qqqq",
"qq08;XoX.X.;0qqq",
"q3=&+o. Xoo+;<6q",
"0; ooo@;:#oo. >q",
"q2Ooo@3qq4#ooo<q",
"q9;o >qqqq>.X*7q",
"q8*X :qqqq< o:0q",
"q1ooo@5qq5%ooO2q",
"q: ooo%<<%oo. -0",
"q5<:+oo..oo+&*3q",
"qqq0;oo .o -80qq",
"qqqq> o**o :qqqq",
"qqqq5->77:&3qqqq",
"qqqqq00qq88qqqqq"
};
