/* XPM */
static char *Free_Converter_com_css_36525909[] = {
/* columns rows colors chars-per-pixel */
"16 16 110 2 ",
"   c #10FE6FCCB561",
".  c #11AB706BB5B2",
"X  c #13877191B653",
"o  c #1A99757FB7EA",
"O  c #12F07582B989",
"+  c #14057563B941",
"@  c #1CCE76C5B88F",
"#  c #209B78A7B95B",
"$  c #25297B93BAB2",
"%  c #29A17DCBBB96",
"&  c #2B047FB0BD8D",
"*  c #2C078347BF96",
"=  c #2F098215BECF",
"-  c #301982B8BF23",
";  c #1C2F892EC727",
":  c #1ED08CEDC9C2",
">  c #22CD8779C4EE",
",  c #242586ECC459",
"<  c #283E840FC161",
"1  c #27DA87BCC43E",
"2  c #2E09853CC12B",
"3  c #20878CDDC94E",
"4  c #32C787BAC27E",
"5  c #3770871CC183",
"6  c #3321885EC2EC",
"7  c #3DCB8940C092",
"8  c #3D388C79C394",
"9  c #3A808C4BC4E9",
"0  c #25B19305CD49",
"q  c #28729B45D2FC",
"w  c #2CCE98E6D0D2",
"e  c #345F9F47D4AD",
"r  c #2C08A11FD6F6",
"t  c #33A8A261D717",
"y  c #3139A71ADB2E",
"u  c #406C8C98C43C",
"i  c #463091F8C5CE",
"p  c #478E90E7C689",
"a  c #49C594B6C91B",
"s  c #4C78956CC941",
"d  c #52A294F2C59E",
"f  c #575697DFC6E6",
"g  c #58A49B4BCBD3",
"h  c #5CDA9B15C88A",
"j  c #59DD9D86CD7B",
"k  c #41E3AB87DBF3",
"l  c #408FAFFBDFB6",
"z  c #46DAAF95DE55",
"x  c #5476B458DFC1",
"c  c #5A2AB64BE03C",
"v  c #6C37A3A1CC43",
"b  c #6954A50CD0F4",
"n  c #731BAA8AD081",
"m  c #7D82AD7FD094",
"M  c #79AAAF03D60E",
"N  c #5455B7EFE2CE",
"B  c #6F15C166E5E9",
"V  c #70C9C3DEE7BC",
"C  c #7F97C96DE98E",
"Z  c #87CAB2F2D311",
"A  c #8947B3F4D39B",
"S  c #898FB70DD5F9",
"D  c #89F5B8A2DAEC",
"F  c #9F7FC0C8D8EC",
"G  c #9A33C233DFC9",
"H  c #99FCC299E036",
"J  c #A1EEC209D99B",
"K  c #B3C1CBE0DDE9",
"L  c #858BC944E824",
"P  c #867CCD80EBA2",
"I  c #8BCACF55EC59",
"U  c #93C9D2B7EDA2",
"Y  c #9CCDD2F9EC1C",
"T  c #9E26D43BECAF",
"R  c #9B7CD644EF37",
"E  c #AAE4CC1DE506",
"W  c #ABD3CC9CE54D",
"Q  c #B034CFF9E70F",
"!  c #A0E4D848EFCB",
"~  c #A0EFD87EEFFB",
"^  c #BB70D630EA33",
"/  c #ABBADD23F21A",
"(  c #BAC4E367F495",
")  c #C134D3A8E12F",
"_  c #CBB6D9B2E3F8",
"`  c #CB06E004EF6E",
"'  c #D849E0BDE6EE",
"]  c #DAE1E24AE7B1",
"[  c #DF44E61CEA82",
"{  c #C870E918F6C1",
"}  c #CFB2EBCCF7EB",
"|  c #D628E6E2F2F3",
" . c #DCA3EA87F4A8",
".. c #DEEDEBFDF5A7",
"X. c #D688EEB9F908",
"o. c #DBBDF0C1F9DF",
"O. c #E36FE725E9DB",
"+. c #E33EEEAAF705",
"@. c #E538EFD9F7A2",
"#. c #E7F3F175F895",
"$. c #E98DF276F904",
"%. c #EB0AF597FA6E",
"&. c #EEF0F5A1FA9A",
"*. c #EF22F8FAFD2B",
"=. c #F44AF8E8FC50",
"-. c #F0EAF9B8FD7C",
";. c #F5CEF9D6FCC8",
":. c #F52BFB9EFE3F",
">. c #F957FC01FDEE",
",. c #FFF9FFFCFFFE",
/* pixels */
",.>.@.+.+.+.+.+.+.+.+.+.+.@.>.,.",
",.| u = = = - - 6 6 6 6 4 8 | ,.",
",...& . . . . O q r r r q 2 ..,.",
",.$.5 o v Z Z S T ~ ~ P t 9 $.,.",
",.&.p @ J ] ' ] %.*.,.{ e a &.,.",
",.=.g . $ = % = k N o.( w j =.,.",
",.>.b . . o f n L U *./ 0 b >.,.",
",.,.M   . @ J [ &.*.,.R : M ,.,.",
",.,.D   % 7 - p c C *.I ; D ,.,.",
",.,.G . h _ f O r V *.C ; G ,.,.",
",.,.E + f O.) S Y X.:.B > E ,.,.",
",.,.^ @ = m K ] %.} R z 1 ^ ,.,.",
",.,.` #   . # 8 x l y q 1 ` ,.,.",
",.,.#.v - o . + 0 3 , 4 b @.,.,.",
",.,.,.=...Q M a s M E  .;.,.,.,.",
",.,.,.,.,.,.,.&.$.,.,.,.,.,.,.,."
};
