/* XPM */
static char *Free_Converter_com_diff_25060008[] = {
/* columns rows colors chars-per-pixel */
"16 16 22 1 ",
"  c #00007BAD0000",
". c #00007E160000",
"X c #BF9300000000",
"o c #DF607BFD7BFD",
"O c #DF607D997D99",
"+ c #0000808C0000",
"@ c #3E309F8C3E30",
"# c #4032A0604032",
"$ c #7A65BD727A65",
"% c #7D6CBDE37D6C",
"& c #7F36BEAB7F37",
"* c #7974C1167CD0",
"= c #E19B7F44800D",
"- c #E09B80F080F0",
"; c #F01BBF4CBF4C",
": c #8000C0408000",
"> c #8384C1CD8384",
", c #BD0DDEBFBD0D",
"< c #BD3FDEBFBD3F",
"1 c #BFC6DFFCBFC6",
"2 c #BDFCE122BFA2",
"3 c gray100",
/* pixels */
"3333333333333333",
"333;O------O;333",
"333OXXXXXXXXO333",
"333OXXXXXXXXO333",
"333;OO====OO;333",
"3333332**1333333",
"333333&  &333333",
"333333&..&333333",
"333,&*@+.@&$1333",
"333& ..+++..&333",
"333&...+++..&333",
"3331&>#..#>&,333",
"333333&..&333333",
"333333& .&333333",
"3333331&&1333333",
"3333333333333333"
};
