/* XPM */
static char *Free_Converter_com_editorconfig_91650008[] = {
/* columns rows colors chars-per-pixel */
"16 16 58 1 ",
"  c #70636FAE6FAE",
". c #7E767DCD7DCD",
"X c #84A0819A819A",
"o c #8CA98B488B48",
"O c #8DDD8DDD8DDD",
"+ c #93F092299229",
"@ c #97FC970E970E",
"# c #9D5F9D5F9D5E",
"$ c #A43EA427A427",
"% c #A6EEA603A603",
"& c #AB8CAB86AB8F",
"* c #ACD2ACC0ACC8",
"= c #AE5CAE5CAE5C",
"- c #B3D1AE3BAE3B",
"; c #B672B112B112",
": c #B4EBB4EBB4EB",
"> c #B69EB69DB69D",
", c #B8AFB735B735",
"< c #B8B1B8B4B8B4",
"1 c #BC04BC04BC10",
"2 c #BE33BE33BE33",
"3 c #BFE8BFE8BFEC",
"4 c #C34DC02AC02A",
"5 c #C262C045C045",
"6 c #C4D7C4D7C4D7",
"7 c #C8D7C4F8C4F8",
"8 c #CE21C7C5C7C5",
"9 c #CA1EC987C987",
"0 c #CEF5CBD8CBD8",
"q c #D1A3C9DEC9DE",
"w c #D1E0CF34CF34",
"e c #D590CE4CCE4C",
"r c #D89ACFC7CFC7",
"t c #D503D2E9D2E9",
"y c #D4C2D4C6D4C6",
"u c #D5C5D5C5D5C7",
"i c #DBF9D3F9D3F9",
"p c #DDC4D629D629",
"a c #DAE0DAE0DAE0",
"s c #DDE8DDE8DDE6",
"d c #E5EBDD91DD91",
"f c #E8E7DED3DED3",
"g c #E0CFE0CFE0D9",
"h c #E2FFE305E305",
"j c #E552E553E553",
"k c #E82BE7CEE7CE",
"l c #EDA3E3C2E3C2",
"z c #E891E8B2E8B2",
"x c #EC5BEC5BEC5A",
"c c #EDBDEDC1EDC1",
"v c #F04AF04AF04A",
"b c #F3A9F3B8F3B8",
"n c #F4EAF4EDF4ED",
"m c #FFFFF5F1F5F1",
"M c #F8C3F8D2F8D2",
"N c #F9E9F9F2F9F2",
"B c #FE24FE25FE25",
"V c #FFFDFFFDFFFD",
/* pixels */
"VVVVVVNbVVVVVVVV",
"VVVVVz5=aVVVVVVV",
"VVVVc7iiwVVVVVVV",
"VVVVtdme9VVVVVVV",
"VVVc+;-X,nVVVVVV",
"VVV2>zjy<=hz69bV",
"VVa&NVVVVy.;ee4b",
"VaO=anVVVNormm8c",
"V9#h+=ascN>dml2b",
"V6&y&55$94@qp0cV",
"V>jVVn62s2$><nVV",
"c>bVVVnzc66VNVVV",
"j&nVVVVz25nVVVVV",
"h $zbj2=yVVVVVVV",
"b==,>2ynVVVVVVVV",
"VNncnVVVVVVVVVVV"
};
