/* XPM */
static char *Free_Converter_com_emacs_89080008[] = {
/* columns rows colors chars-per-pixel */
"16 16 140 2 ",
"   c #7C09533EAAE7",
".  c #7AA258EBAE2D",
"X  c #7E88535EB3AA",
"o  c #7B8755EAB17C",
"O  c #7CF0569EB422",
"+  c #7BC25800B27A",
"@  c #7F8F5979B5B9",
"#  c #7FFA5DC8B76B",
"$  c #7C5F6369B332",
"%  c #7DD3629BB7DC",
"&  c #7FA062E5B94D",
"*  c #7BFD686DB91D",
"=  c #7FA07670BD3A",
"-  c #7FE27851C071",
";  c #84A24539AFAD",
":  c #8B8A5527ACB6",
">  c #870B4237B064",
",  c #843B473FB4B3",
"<  c #87404595B7A3",
"1  c #822E4E4CB591",
"2  c #85B94F57B833",
"3  c #8D094495BA82",
"4  c #8B7E4AB1BC1C",
"5  c #88294F7BB862",
"6  c #904146BFBBFF",
"7  c #83535346B391",
"8  c #81105492B565",
"9  c #80E05CEEB6F0",
"0  c #8564677EAE4C",
"q  c #8C296A76AEBC",
"w  c #818C67D8B03C",
"e  c #8F6C6977B057",
"r  c #809C6230B99F",
"t  c #813965D6BACF",
"y  c #847464F5BA69",
"u  c #876469EFBCE8",
"i  c #82E26F2CBD3B",
"p  c #94F26964B0E0",
"a  c #90656C37BED8",
"s  c #8C5971E5B1E8",
"d  c #8C777691B68C",
"f  c #817A70C2BA7F",
"g  c #857F7750BA92",
"h  c #832C742EC023",
"j  c #8D417C9BBBF4",
"k  c #8DAF7DF4BD40",
"l  c #92F376E3B2A1",
"z  c #999A7114B580",
"x  c #933E7AB5B700",
"c  c #91AF7FD7BD4B",
"v  c #97A96719C2BC",
"b  c #815F74D8C069",
"n  c #80ED7704C114",
"m  c #8373780AC1DB",
"M  c #81B87C7EC399",
"N  c #82337DD0C484",
"B  c #8B797C9BC428",
"V  c #91327380C0F7",
"C  c #92A77DBFC593",
"Z  c #925C7EC5C58E",
"A  c #A181656FC915",
"S  c #908A8063BDEE",
"D  c #9D9C84DEB98D",
"F  c #A30983E4BAE3",
"G  c #AA658B8ABEDF",
"H  c #A87F8E0DBEDB",
"J  c #8BB1819BC523",
"K  c #896B8346C6DE",
"L  c #8A838743C869",
"P  c #9BD28AE2C1B5",
"I  c #9D638DD1C45E",
"U  c #95788696C88F",
"Y  c #935C8C6DCB03",
"T  c #9C9C8B2BCB1E",
"R  c #971A9111CD3A",
"E  c #A630840ACB54",
"W  c #A1B08868CA7A",
"Q  c #A4AA8F7CCD71",
"!  c #A8958C20CCA6",
"~  c #A5059269C416",
"^  c #A34B9326C68F",
"/  c #A4D19686D01D",
"(  c #AB9492B9CF24",
")  c #AA4294F8CFEB",
"_  c #AF97834AD0E9",
"`  c #AFD38A97D107",
"'  c #A7AA9D55D2E7",
"]  c #B19E9F48D48E",
"[  c #BE879624D99A",
"{  c #BDC3AE5DCE18",
"}  c #AE88AAEED905",
"|  c #B528A0F4D572",
" . c #B15AAABED90D",
".. c #BEE4AB9CDA40",
"X. c #B9BCAEC1DB1C",
"o. c #BE32B035D488",
"O. c #BB00B1AEDC0D",
"+. c #BDE2B354DD40",
"@. c #BF3DBB41E078",
"#. c #C24AB0D7CF1C",
"$. c #C6CFB61DD222",
"%. c #C64DB7DED32F",
"&. c #C1AAB3FBD63E",
"*. c #C556B789D5E1",
"=. c #C3FFBB77E0F2",
"-. c #C827BB68E152",
";. c #CD7DBD10E25C",
":. c #CF21C3D4DBFB",
">. c #CF6AC41BDECF",
",. c #D618CB13DDEA",
"<. c #D796CCC4DEEE",
"1. c #CF5FC323E4CF",
"2. c #CA00C542E531",
"3. c #D27BC1AEE53C",
"4. c #D833CEE4E1CA",
"5. c #D1EBCCE5E8C1",
"6. c #D68CCD7FE953",
"7. c #D7D9D1E4EB10",
"8. c #DB21D47DEC50",
"9. c #DD18D98FEE8F",
"0. c #E440D8B3EFAA",
"q. c #EA97E520EFEC",
"w. c #E6CFE17AF25F",
"e. c #EC87E6E9F1C6",
"r. c #ECACE284F49F",
"t. c #F016ED0AF295",
"y. c #EBC3E91EF5A8",
"u. c #ECA2E895F576",
"i. c #ED1FEBAEF6C2",
"p. c #F0C3ECFAF436",
"a. c #F1E8EEC9F44B",
"s. c #F188ED31F4E3",
"d. c #F1B2F004F8A0",
"f. c #F48CF2A4F5F9",
"g. c #F69BF3BAF897",
"h. c #F6BBF4BBFAF5",
"j. c #F93DF6E2FA95",
"k. c #FAA4F8F9FB93",
"l. c #FCABFC37FCEB",
"z. c #FFFEFFFEFFFE",
/* pixels */
"z.z.z.z.z.z.f.i.u.f.z.z.z.z.z.z.",
"z.z.z.z.e.o.I k j P { q.z.z.z.z.",
"z.z.z.>.S = N N K J f d :.l.z.z.",
"z.z.>.g N N M Y  .9.2.i w :.z.z.",
"z.e.c - L } @.2.5.u.8.h % s q.z.",
"z.&.= N R i.d.O./ T V t r . { z.",
"j.^ - m m ' 7.X.C t & % # o D j.",
"p.c n n n U +.y.w.| y # @ X q t.",
"s.c n B =.p.e.-.) V 9 O 8 1 e p.",
"j.~ * ' l.h.Q 9 @ O X X 2 , F k.",
"z.*.$ C 6.d.1.] ( ! E v 4 ; #.z.",
"z.s.x & u W ..;.3.0.r.[ 3 p i.z.",
"z.z.4.0 + 9 a E ` _ A 6 : ,.z.z.",
"z.z.z.4.l   7 5 , > > p ,.z.z.z.",
"z.z.z.z.p.$.G z z ~ $.p.z.z.z.z.",
"z.z.z.z.z.z.l.f.g.k.z.z.z.z.z.z."
};
