/* XPM */
static char *Free_Converter_com_eslint_57800009[] = {
/* columns rows colors chars-per-pixel */
"16 16 60 1 ",
"  c #469D2CDDC235",
". c #482A2EA5C2B8",
"X c #4B89327DC3D1",
"o c #4CC633D4C432",
"O c #4CF13404C44C",
"+ c #56813EFEC77E",
"@ c #5C244581C95E",
"# c #5D4D46B1C9C3",
"$ c #5F01489ECA50",
"% c #613C4B36CB0C",
"& c #63FA4E4BCBF5",
"* c #67535228CD0F",
"= c #690E5403CDA4",
"- c #6C87580ACEDD",
"; c #7E266C40D4CC",
": c #7F1D7F1DF2CE",
"> c #82A0715CD63E",
", c #86667580D740",
"< c #87CB7753D7C0",
"1 c #90F88183DADD",
"2 c #963A8792DCCF",
"3 c #9FD49256DFAE",
"4 c #82998299F328",
"5 c #9502950AF50A",
"6 c #97CA97DDF5A4",
"7 c #98799881F579",
"8 c #9DB49DC9F609",
"9 c #A20594C0E062",
"0 c #AB209F9CE3A2",
"q c #AC71A0ADE401",
"w c #B04EA51EE558",
"e c #ABCCABEAF7C0",
"r c #AE7DAE96F7DE",
"t c #B1AEB1D0F827",
"y c #B443B45FF87A",
"u c #C979C1B7EDE6",
"i c #CEE2C824EFA7",
"p c #C80CC84DFAA9",
"a c #CBECCC26FB24",
"s c #CDEECE35FB67",
"d c #D398CD8CF12A",
"f c #D658D07FF22A",
"g c #DB41D606F398",
"h c #DD47D88FF47D",
"j c #DE2ED975F4BA",
"k c #D19FD1DEFB97",
"l c #E186DD4EF5D9",
"z c #E6CEE353F78B",
"x c #EC49E98DF96D",
"c c #EC74E9BDF97B",
"v c #F042EE26FAAA",
"b c #F055EF89FD11",
"n c #EF3FEF1BFE02",
"m c #F09DEE82FADE",
"M c #F4BBF339FC45",
"N c #F558F3E9FC76",
"B c #F3FFF3D6FE6C",
"V c #F610F4B3FCB6",
"C c #FBFEFB6DFEAA",
"Z c #FFFBFFFBFFFE",
/* pixels */
"ZZZZZZZZZZZZZZZZ",
"ZZZZNccccccNZZZZ",
"ZZZm,##$$##,vZZZ",
"ZZZwO.$39%.OwZZZ",
"ZZl*+,gnnh1@*lZZ",
"ZC2*uVs75pnu*2CZ",
"Zi+,Nt4::4eB,+iZ",
"V> ,n8:4::7n, >V",
"M; ,v8:4::7c< ;B",
"Zu@,By4::4rB<+uZ",
"ZC1=dNk75aBf-,CZ",
"ZZh%#3zBVz9#*hZZ",
"ZZZ0oX&qq=.XqZZZ",
"ZZZx>##%%##>vZZZ",
"ZZZZMccccccMZZZZ",
"ZZZZZZZZZZZZZZZZ"
};
