/* XPM */
static char *Free_Converter_com_file_type_git2_61774450[] = {
/* columns rows colors chars-per-pixel */
"16 16 49 1 ",
"  c #010C00E300DC",
". c #0D8E06D405C6",
"X c #0D3F07C606DE",
"o c #12F7090D0788",
"O c #162E0AF10920",
"+ c #15840B4609B9",
"@ c #1C500ECB0CB4",
"# c #209F123B0FF1",
"$ c #2626142A1148",
"% c #491622171BF1",
"& c #542129532281",
"* c #5A6F2870206F",
"= c #628C2E84266B",
"- c #71F92B862084",
"; c #76802ECC2399",
": c #6F99327728E0",
"> c #7B7F30B224F0",
", c #77EB352E2AD2",
"< c #4369436F4370",
"1 c #43A143C243C7",
"2 c #440A440A440A",
"3 c #47AB47AD47AD",
"4 c #493149344934",
"5 c #4F7B4F834F84",
"6 c #500550055005",
"7 c #531253125312",
"8 c #7A345F3D5AFE",
"9 c #9FA8439D3508",
"0 c #A03C41BD32E9",
"q c #A8954296328A",
"w c #AEDD44B533E1",
"e c #B71B4802366B",
"r c #BB6A48E636B6",
"t c #BC4B47F535B0",
"y c #B14B4D493D5C",
"u c #B0EA4E0E3E35",
"i c #BB544B1D394E",
"p c #CC434FA43BC6",
"a c #D0D74E113983",
"s c #DB804FEF39C2",
"d c #84AD61705BC3",
"f c #D814D814D814",
"g c #D8BDD8BDD8BD",
"h c #DB8DDB8DDB8D",
"j c #DCB6DCB6DCB6",
"k c #F030F030F030",
"l c #F9C2E6E9E3E8",
"z c #F0E1F0E1F0E1",
"x c #FFFEFFFEFFFE",
/* pixels */
"xxxxxxxkkxxxxxxx",
"xxxxxxf56gxxxxxx",
"xxxxxl8  4gxxxxx",
"xxxxfdy%X 4gxxxx",
"xxxf< *p0O 4gxxx",
"xxf<  Ots&  4gxx",
"xg2    ,iy%X 4gx",
"k6     :;=a0X 6z",
"z7     :-#rwo 6z",
"xg4    ,> $# 2gx",
"xxg4  Oet@  2fxx",
"xxxg2 Oqw@ 2fxxx",
"xxxxg4 OO <fxxxx",
"xxxxxj4  <fxxxxx",
"xxxxxxj65fxxxxxx",
"xxxxxxxkkxxxxxxx"
};
