/* XPM */
static char *Free_Converter_com_js_8650422[] = {
/* columns rows colors chars-per-pixel */
"16 16 39 1 ",
"  c #F60EDF471BE4",
". c #F657E0382272",
"X c #F694E0E62734",
"o c #F6C3E14D2A6C",
"O c #F6D3E1F22F17",
"+ c #F6EAE2383034",
"@ c #F723E2FC358C",
"# c #F783E3F83CBC",
"$ c #F7C5E4A641C1",
"% c #F7DFE5A04750",
"& c #F7DFE5A94816",
"* c #F87DE79F558A",
"= c #F8EAE8405A76",
"- c #F926E9406173",
"; c #F98CEAA66A7E",
": c #F9B5EB7F70AA",
"> c #FA73ED7A7E90",
", c #FAC5EEE088AC",
"< c #FB2BF0739302",
"1 c #FB50F0E0964E",
"2 c #FB84F11B988E",
"3 c #FBD7F22E9F62",
"4 c #FBD2F262A158",
"5 c #FC0CF350A7A3",
"6 c #FC2BF362A853",
"7 c #FCE4F5A6B793",
"8 c #FD06F652BC5F",
"9 c #FD31F669BD63",
"0 c #FDCCF8CDCDA0",
"q c #FE21F98AD2FE",
"w c #FE46FA1AD6F7",
"e c #FE5CFAC3DB86",
"r c #FE9AFABEDC7B",
"t c #FED6FC38E536",
"y c #FF39FD99EF08",
"u c #FF50FDDAF0A6",
"i c #FF9EFEB5F724",
"p c #FFCFFF73FC07",
"a c #FFFFFFFFFFFE",
/* pixels */
"aaaaaaaaaaaaaaaa",
"aaaaaaaaaaaaaaaa",
"aaaaaaaaaaaaaaaa",
"aaaaautpaireiaaa",
"aaaaa>$ty:+O;taa",
"aaaap:or6.;>=waa",
"aaaap:or2 1uuaaa",
"aaaap:orq#.-8paa",
"aaaap:oea0;oX3aa",
"aapip:oepua8O%ya",
"ap<:8&@r,*78@%ya",
"ai,oXX,p6@XXO4aa",
"aai848uaaw540paa",
"aaaaaaaaaaaaaaaa",
"aaaaaaaaaaaaaaaa",
"aaaaaaaaaaaaaaaa"
};
