<?xml version="1.0" encoding="UTF-8"?>
<svg width="120px" height="114px" viewBox="0 0 120 114" version="1.1" xmlns="http://www.w3.org/2000/svg" xmlns:xlink="http://www.w3.org/1999/xlink">
    <!-- Generator: Sketch 52.2 (67145) - http://www.bohemiancoding.com/sketch -->
    <title>Group</title>
    <desc>Created with Sketch.</desc>
    <g id="Page-1" stroke="none" stroke-width="1" fill="none" fill-rule="evenodd">
        <g id="icon-shape" transform="translate(-60.000000, -66.000000)" fill="#672F14">
            <g id="Group" transform="translate(60.000000, 60.000000)">
                <path d="M0.13121924,56.0000078 C2.18957117,71.6360677 28.2070345,84 60,84 C91.7929655,84 117.810429,71.6360677 119.868781,56.0000078 L120,56 L120,60 C120,93.137085 93.137085,120 60,120 C26.862915,120 0,93.137085 0,60 L0,56 L0.131218219,56 L0.13121924,56.0000078 Z" id="Path"></path>
                <path d="M44.6252419,25.9810182 C46.5375388,27.5638072 48.4565489,29.0235812 50.3066225,30.3740362 C24.5538708,32.4554614 5,42.6832689 5,54.9870088 C5,68.7941276 29.6243388,79.9870088 60,79.9870088 C90.3756612,79.9870088 115,68.7941276 115,54.9870088 C115,42.6125749 95.2207808,32.3379973 69.2488604,30.3389662 C66.4499487,28.3575025 64.2866065,26.8214897 63.2229409,26.0466066 C62.7731147,25.7189124 62.2881406,25.3689106 61.7828974,25 C94.0952931,25.4714794 120,38.716652 120,54.9870088 C120,71.5555513 93.137085,84.9870088 60,84.9870088 C26.862915,84.9870088 0,71.5555513 0,54.9870088 C0,41.0757766 18.9371984,29.3760542 44.6252419,25.9810182 Z" id="Path"></path>
                <path d="M46.8712539,68.1366525 C46.8712539,68.1366525 50.5902193,68.3997394 55.3745023,67.9780871 C57.3120157,67.8073295 64.6682321,67.0847742 70.1680088,65.8786357 C70.1680088,65.8786357 76.8735641,64.4435618 80.4609615,63.1215406 C84.2145946,61.7382498 86.2571852,60.5642204 87.176578,58.9006596 C87.136484,58.5598095 87.4596478,57.3510897 85.7286337,56.625045 C81.3030867,54.7688144 76.1705057,55.104566 66.0143964,54.8892359 C54.7516696,54.5022551 51.0050077,52.6170448 49.0091809,51.0986967 C47.0953132,49.5583948 48.0577016,45.2970204 56.2581722,41.5433967 C60.3889868,39.5445402 76.5822419,35.855815 76.5822419,35.855815 C71.1286449,33.160161 60.9594034,28.4212889 58.8690127,27.3979682 C57.0356156,26.5004726 54.1016302,25.149095 53.4656463,23.5141087 C52.7445757,21.9444711 55.1685683,20.5923587 56.5225893,20.2051537 C60.8833416,18.9473131 67.039394,18.1655249 72.6421188,18.0777552 C75.4583469,18.0336348 75.9154715,17.8524411 75.9154715,17.8524411 C79.801332,17.2078544 82.3594171,14.5492534 81.2936096,10.3388142 C80.3367982,6.04105551 75.2904909,3.51573703 70.4950162,4.38997508 C65.9791257,5.21325153 55.0946543,8.37489678 55.0946543,8.37489678 C68.5486663,8.25845266 70.800507,8.48300367 71.8062113,9.88911679 C72.4001416,10.7195265 71.5363303,11.8581477 67.9481981,12.4441666 C64.0418573,13.082159 55.92165,13.8504701 55.92165,13.8504701 C48.1317851,14.3130963 42.6446132,14.3440599 40.9988742,17.8284337 C39.9237026,20.1048169 42.1454351,22.1173069 43.1192224,23.3770278 C47.2342669,27.9533702 53.1781865,30.4215152 57.0041886,32.2390743 C58.4437485,32.9229393 62.667582,34.2143963 62.667582,34.2143963 C50.2553551,33.5317146 41.3016331,37.3430676 36.0494483,41.7313129 C30.1090519,47.2258913 32.7369054,53.7752589 44.9071368,57.8078846 C52.0953654,60.1897106 55.6602664,61.3098844 66.3825906,60.3443439 C72.6981525,60.0039347 73.693739,60.2065112 73.7567062,60.7247321 C73.845354,61.4543415 66.7419295,63.2667175 64.8026262,63.8261026 C59.8690081,65.2491878 46.9359922,68.1227157 46.8712539,68.1366525 Z" id="path4237" transform="translate(60.088576, 36.217730) rotate(10.000000) translate(-60.088576, -36.217730) "></path>
            </g>
        </g>
    </g>
</svg>